<svg xmlns="http://www.w3.org/2000/svg" viewBox="0 0 100 145" role="img" aria-labelledby="title-5s">
  <title id="title-5s">五索</title>
  <g transform="translate(-1 1)" opacity=".96"><g transform="translate(35 45) scale(0.9)">
    <rect x="-3.1" y="-12" width="6.2" height="24" rx="3" fill="#257152"/>
    <path d="M-3-4H3M-3 4H3" stroke="#f7dfaa" stroke-width="1.3" opacity=".85"/>
    <path d="M-2-9L2-12M-2 12L2 9" stroke="#d8b866" stroke-width="1" opacity=".7"/>
  </g><g transform="translate(59 45) scale(0.9)">
    <rect x="-3.1" y="-12" width="6.2" height="24" rx="3" fill="#266b91"/>
    <path d="M-3-4H3M-3 4H3" stroke="#f7dfaa" stroke-width="1.3" opacity=".85"/>
    <path d="M-2-9L2-12M-2 12L2 9" stroke="#d8b866" stroke-width="1" opacity=".7"/>
  </g><g transform="translate(47 71) scale(0.9)">
    <rect x="-3.1" y="-12" width="6.2" height="24" rx="3" fill="#bb352e"/>
    <path d="M-3-4H3M-3 4H3" stroke="#f7dfaa" stroke-width="1.3" opacity=".85"/>
    <path d="M-2-9L2-12M-2 12L2 9" stroke="#d8b866" stroke-width="1" opacity=".7"/>
  </g><g transform="translate(35 98) scale(0.9)">
    <rect x="-3.1" y="-12" width="6.2" height="24" rx="3" fill="#257152"/>
    <path d="M-3-4H3M-3 4H3" stroke="#f7dfaa" stroke-width="1.3" opacity=".85"/>
    <path d="M-2-9L2-12M-2 12L2 9" stroke="#d8b866" stroke-width="1" opacity=".7"/>
  </g><g transform="translate(59 98) scale(0.9)">
    <rect x="-3.1" y="-12" width="6.2" height="24" rx="3" fill="#266b91"/>
    <path d="M-3-4H3M-3 4H3" stroke="#f7dfaa" stroke-width="1.3" opacity=".85"/>
    <path d="M-2-9L2-12M-2 12L2 9" stroke="#d8b866" stroke-width="1" opacity=".7"/>
  </g></g>
</svg>
